<?xml version='1.0' encoding='utf-8'?>
<!DOCTYPE svg PUBLIC '-//W3C//DTD SVG 1.1//EN' 'http://www.w3.org/Graphics/SVG/1.1/DTD/svg11.dtd'>
<svg version="1.1" xmlns="http://www.w3.org/2000/svg" viewBox="0 0 512 512" xmlns:xlink="http://www.w3.org/1999/xlink" enable-background="new 0 0 512 512">
  <g>
    <g>
      <g>
        <path d="m480.7,150.1c-11.3,0-20.4,9.1-20.4,20.4v62.9h-408.4v-137c2.13163e-14-11.3-9.1-20.4-20.4-20.4-11.3,0-20.4,9.1-20.4,20.4v319.2c0,11.3 9.1,20.4 20.4,20.4 11.3,0 20.4-9.1 20.4-20.4v-141.3h408.3v141.3c0,11.3 9.1,20.4 20.4,20.4 11.3,0 20.4-9.1 20.4-20.4v-245.1c0.1-11.3-9.1-20.4-20.3-20.4z"/>
        <path d="m132.7,204.2c8,8 20.9,8 28.9,0 8-8 8-20.9 0-28.9l-39.1-39.1c-8-8-20.9-8-28.9,0-8,8-8,20.9 0,28.9l39.1,39.1z"/>
      </g>
    </g>
  </g>
</svg>
