<?xml version="1.0" encoding="iso-8859-1"?>
<!-- Generator: Adobe Illustrator 19.0.0, SVG Export Plug-In . SVG Version: 6.00 Build 0)  -->
<svg version="1.1" id="Layer_1" xmlns="http://www.w3.org/2000/svg" xmlns:xlink="http://www.w3.org/1999/xlink" x="0px" y="0px"
	 viewBox="0 0 397.188 397.188" style="enable-background:new 0 0 397.188 397.188;" xml:space="preserve">
<g id="XMLID_309_">
	<g>
		<g>
			<path d="M169.173,192.625c13.364-16.852,20.427-37.162,20.427-58.733c0-52.273-42.527-94.8-94.8-94.8
				c-52.273,0-94.8,42.527-94.8,94.8c0,21.571,7.07,41.888,20.445,58.751c16.722,21.085,65.132,70.922,67.185,73.033l7.169,7.375
				l6.21-6.387l29.38,12.019l8.423-20.588l-21.207-8.676C133.823,232.422,158.254,206.396,169.173,192.625z M94.8,244.308
				c-14.358-14.934-46.314-48.494-58.685-64.092C25.573,166.923,20,150.905,20,133.892c0-41.245,33.555-74.8,74.8-74.8
				c41.245,0,74.8,33.555,74.8,74.8c0,17.014-5.566,33.026-16.098,46.307C141.129,195.802,109.163,229.37,94.8,244.308z"/>
			<path d="M94.8,75.171c-31.822,0-57.712,25.89-57.712,57.712c0,31.822,25.89,57.712,57.712,57.712
				c31.822,0,57.712-25.89,57.712-57.712S126.623,75.171,94.8,75.171z M94.8,170.595c-20.794,0-37.712-16.917-37.712-37.712
				c0-20.795,16.918-37.712,37.712-37.712s37.712,16.917,37.712,37.712S115.595,170.595,94.8,170.595z"/>
			<path d="M302.388,124.137c-52.273,0-94.801,42.527-94.801,94.801c0,21.571,7.07,41.887,20.445,58.752
				c7.728,9.743,22.22,25.624,35.78,40.1l-5.423,13.257l29.466,12.054c4.167,4.332,6.908,7.153,7.363,7.621l7.17,7.375l7.17-7.374
				c2.053-2.112,50.478-51.96,67.202-73.05c13.364-16.852,20.428-37.161,20.428-58.734
				C397.188,166.664,354.66,124.137,302.388,124.137z M361.09,265.243c-12.373,15.602-44.34,49.171-58.702,64.109
				c-14.357-14.933-46.312-48.49-58.686-64.092c-10.543-13.293-16.115-29.312-16.115-46.324c0-41.245,33.556-74.801,74.801-74.801
				s74.8,33.556,74.8,74.801C377.188,235.952,371.621,251.964,361.09,265.243z"/>
			<path d="M302.388,160.216c-31.822,0-57.712,25.89-57.712,57.712c0,31.822,25.89,57.712,57.712,57.712s57.711-25.89,57.711-57.712
				C360.099,186.106,334.21,160.216,302.388,160.216z M302.388,255.64c-20.794,0-37.712-16.917-37.712-37.712
				s16.918-37.712,37.712-37.712s37.711,16.917,37.711,37.712S323.182,255.64,302.388,255.64z"/>
			
				<rect x="207.985" y="294.38" transform="matrix(-0.9256 -0.3786 0.3786 -0.9256 318.1012 673.5494)" width="34.572" height="22.242"/>
			
				<rect x="154.649" y="272.558" transform="matrix(-0.9256 -0.3786 0.3786 -0.9256 223.662 611.3376)" width="34.571" height="22.243"/>
		</g>
	</g>
</g>
<g>
</g>
<g>
</g>
<g>
</g>
<g>
</g>
<g>
</g>
<g>
</g>
<g>
</g>
<g>
</g>
<g>
</g>
<g>
</g>
<g>
</g>
<g>
</g>
<g>
</g>
<g>
</g>
<g>
</g>
</svg>
